<svg xmlns="http://www.w3.org/2000/svg" viewBox="0 0 20 20">
  <defs>
    <filter id="a">
      <feColorMatrix in="SourceGraphic" values="0 0 0 0 0.341176 0 0 0 0 0.325490 0 0 0 0 0.423529 0 0 0 1.000000 0"/>
    </filter>
  </defs>
  <g fill="none" fill-rule="evenodd" filter="url(#a)" transform="translate(0 1)">
    <path fill="#000" d="M9.58333333 15h.83333337v3h-.83333337v-3zM8.75 18h2.5v1h-2.5v-1z"/>
    <path stroke="#000" d="M15.0935674 10.58l3.8223177 4.47834081H1.08411489L4.9064326 10.58h10.1871348z"/>
    <path stroke="#000" d="M16.7301078 12.49741928l2.1857773 2.56092153H1.08411489l2.1857773-2.56092153H16.7301078z"/>
    <path stroke="#000" d="M7.56318264 10.58l-1.2741059 4.47834081H1.08411489L4.9064326 10.58h2.65675004zM15.0935674 10.58l3.8223177 4.47834081h-5.2049618L12.4368174 10.58h2.65675z"/>
    <g stroke="#000" transform="translate(4.8 .038341)">
      <circle cx="5.2" cy="5.12" r="2.7"/>
      <g stroke-linecap="square">
        <path d="M5.2 0v.64M8.82038653 1.49961283l-.45254834.45254834M10.32 5.12h-.64M8.8203878 8.74038717l-.45254833-.45254834M5.2 10.24V9.6M1.5796122 8.74038717l.45254833-.45254834M.08 5.12h.64M1.57961347 1.49961283l.45254834.45254834"/>
      </g>
    </g>
  </g>
</svg>
