<svg xmlns="http://www.w3.org/2000/svg" viewBox="0 0 20 20">
  <defs>
    <filter id="a">
      <feColorMatrix in="SourceGraphic" values="0 0 0 0 0.341176 0 0 0 0 0.325490 0 0 0 0 0.423529 0 0 0 1.000000 0"/>
    </filter>
  </defs>
  <g fill="none" fill-rule="evenodd">
    <path d="M-2 0h20v20H-2z"/>
    <g filter="url(#a)" transform="translate(-2)">
      <g fill="#FFF">
        <path d="M13.4514798 5.45797659l.4973226.18101062-.7028419 1.93168777c.0578119.06882078.0988497.15330847.1155795.24818775.016692.09466509.0071068.18788569-.0235158.27217872l1.3209233 1.57537862-.4054211.34018873-1.1488332-1.36963221L13.4514353 17.335l1.1309416.665h-3.43751241l1.13025411-.665.3566514-8.9377622c-.0758396-.03259908-.1433528-.08261157-.1966574-.14591851l-2.02451789.35657672-.0919015-.52119931 2.02438099-.3573534c.05577-.15242007.1803799-.27548308.3427619-.32481972l.0621389-.01454327.7035048-1.93200372zM16.138115 8l.5138883.86718657c.0978653 0 .1833223.05175996.2291043.12871462l1.0278399.0001921v.25781342l-1.0278399.0001921c-.0225673.0379332-.0547748.06974462-.0933567.09225248l.2131966 6.42682151.658.4645111h-2l.6576-.4645111.2044-6.1701728-.3828325.647-.2291675-.1289067.5137991-.8672511c-.0224915-.03790634-.0353631-.08190977-.0353631-.1288422 0-.04682649.0128136-.09073718.035211-.1285854l-.513647-.86750789L16.138115 8z"/>
        <path d="M7.37924752 0l.00076837 3.88421363c.27361659.15378712.46760545.42603888.50733611.74438658L7.89423431 4.749l3.46938636 1.9429873-.51562686.8660254-3.46900435-1.94165019c-.060588.03396339-.12507015.06212211-.1926379.08369213L7.74534259 19.05l1.69641235.95H4.28548639l1.6953811-.95.55967268-13.35005703c-.06705894-.02143352-.13107624-.0493576-.19126111-.08300542L2.87924752 7.5580127l-.51562685-.8660254L5.83236696 4.75c0-.36983354.20703982-.69277586.51485848-.86578637L6.34799381 0h1.03125371z"/>
      </g>
    </g>
  </g>
</svg>
