<svg xmlns="http://www.w3.org/2000/svg" viewBox="0 0 20 20">
  <defs>
    <filter id="a">
      <feColorMatrix in="SourceGraphic" values="0 0 0 0 0.341176 0 0 0 0 0.325490 0 0 0 0 0.423529 0 0 0 1.000000 0"/>
    </filter>
  </defs>
  <g fill="none" fill-rule="evenodd" filter="url(#a)" transform="translate(0 -1)">
    <g fill="#FFF">
      <path d="M10.51562668 1l.00076837 3.79258086c.27361658.15015911.46760545.41598816.5073361.7268257l.00688231.11755942 3.46938634 1.89715014-.5156268.84559494-3.46900439-1.89584458c-.05623809.03078129-.11583124.05667945-.17813286.0770823L10.78375264 17.7l-1.65000594-.1731967.52355801-10.96765869c-.05994704-.01999154-.11735602-.04508029-.1716465-.07471666L6.01562668 8.37971106l-.51562686-.84559494 3.46874629-1.89617373c0-.36110876.20703983-.67643253.51485848-.84536153L9.48437297 1h1.03125371z"/>
      <path d="M15.084691 6.28549642l.557562 2.23523659c.096844.02771202.1879213.08049276.2629259.15816232.0748353.07749423.1243507.17011423.1487249.26762361l2.2145814.63589291-.1634885.5701523-2.2144571-.63498534c-.0346799.03349002-.0723891.06190921-.1122101.08527357L15.9999998 18h-1l.2178651-8.24550358-1.5599779 1.50685668-.4120221-.42666137 1.656937-1.60069976c-.0437044-.17656729-.0050505-.3690002.1149024-.51660428l.0486202-.0524548-.5571442-2.23594555.5755107-.14349092zM5.15153557 4.82432459l.55735904.2028621-.78791125 2.16476839c.14100127.16803877.17290466.39131483.10324319.58372547l1.48054139 1.76512804-.45436326.38125604L4.771561 8.39832459 4.99999982 17h-1l.23436128-8.88088772c-.06238789-.02648424-.12092265-.06399679-.17250555-.11226654L4.0129201 7.9546849l-2.26936331.3998153-.10299579-.58411815 2.26868522-.40028161c.03440002-.09467497.09340542-.18184862.17611783-.25125257.08252571-.0692473.17837411-.11218126.27734623-.12969418l.78882529-2.1648291z"/>
    </g>
    <g stroke="#FFF" stroke-linecap="square" stroke-width=".5">
      <path d="M0 17.5c1.66666667-.33333333 3.33333333-.5 5-.5 2.5 0 7.5 1 10 1 1.6666667 0 3.3333333-.16666667 5-.5M0 18.5c1.66666667-.33333333 3.33333333-.5 5-.5 2.5 0 7.5 1 10 1 1.6666667 0 3.3333333-.16666667 5-.5M0 19.5c1.66666667-.33333333 3.33333333-.5 5-.5 2.5 0 7.5 1 10 1 1.6666667 0 3.3333333-.16666667 5-.5"/>
    </g>
  </g>
</svg>
