<?xml version="1.0" encoding="UTF-8"?>
<svg width="480px" height="150px" viewBox="0 0 480 150" version="1.1" xmlns="http://www.w3.org/2000/svg" xmlns:xlink="http://www.w3.org/1999/xlink">
    <title>Rezoning_heading</title>
    <g id="Rezoning_heading" stroke="none" stroke-width="1" fill="none" fill-rule="evenodd">
        <g id="zones">
            <rect id="zone4" fill="#004F8F" style="mix-blend-mode: screen;" x="0" y="0" width="100" height="100"></rect>
            <rect id="zone4-stroke" stroke="#C0E2FF" stroke-width="2" style="mix-blend-mode: screen;" x="1" y="1" width="98" height="98"></rect>
            <rect id="zone3-fill" fill="#003764" style="mix-blend-mode: screen;" x="50" y="50" width="100" height="100"></rect>
            <rect id="zone3-stroke" stroke="#72A9D9" stroke-width="2" style="mix-blend-mode: screen;" x="51" y="51" width="98" height="98"></rect>
            <rect id="zone2-fill" fill="#006DC6" style="mix-blend-mode: screen;" x="35" y="15" width="100" height="100"></rect>
            <rect id="zone2-stroke" stroke="#399CF3" stroke-width="2" style="mix-blend-mode: screen;" x="36" y="16" width="98" height="98"></rect>
            <rect id="zone1-fill" fill="#225F91" style="mix-blend-mode: screen;" x="15" y="35" width="100" height="100"></rect>
            <rect id="zone1-stroke" stroke="#81C4FF" stroke-width="2" style="mix-blend-mode: screen;" x="16" y="36" width="98" height="98"></rect>
        </g>
        <path d="M182.071429,136 L182.071429,116.203438 L192,116.203438 L202,136 L211,136 L200.214286,115.361032 C203.404762,114.425024 205.821429,112.798711 207.464286,110.482092 C209.107143,108.165473 209.928571,105.252149 209.928571,101.74212 C209.928571,97.2024833 208.642857,93.610554 206.071429,90.9663324 C203.5,88.3221108 199.97619,87 195.5,87 L195.5,87 L174,87 L174,136 L182.071429,136 Z M194.619926,110 L182,110 L182,94 L194.619926,94 C196.629766,94 198.195572,94.5405405 199.317343,95.6216216 C200.439114,96.7027027 201,98.2522523 201,100.27027 L201,100.27027 L201,103.72973 C201,105.747748 200.439114,107.297297 199.317343,108.378378 C198.195572,109.459459 196.629766,110 194.619926,110 L194.619926,110 Z M230.780851,137 C234.197872,137 237.193617,136.336397 239.768085,135.009191 C242.342553,133.681985 244.308511,131.900735 245.665957,129.665441 L245.665957,129.665441 L241.17234,125.264706 C240.095745,126.941176 238.785106,128.268382 237.240426,129.246324 C235.695745,130.224265 233.8,130.713235 231.553191,130.713235 C228.46383,130.713235 226.088298,129.816789 224.426596,128.023897 C222.764894,126.231005 221.934043,123.9375 221.934043,121.143382 L221.934043,121.143382 L221.934043,119.955882 L247,119.955882 L247,117.091912 C247,114.577206 246.660638,112.22549 245.981915,110.036765 C245.303191,107.848039 244.285106,105.927083 242.92766,104.273897 C241.570213,102.620711 239.873404,101.328431 237.837234,100.397059 C235.801064,99.4656863 233.448936,99 230.780851,99 C228.159574,99 225.819149,99.442402 223.759574,100.327206 C221.7,101.21201 219.944681,102.481005 218.493617,104.134191 C217.042553,105.787377 215.930851,107.789828 215.158511,110.141544 C214.38617,112.49326 214,115.112745 214,118 C214,120.887255 214.38617,123.50674 215.158511,125.858456 C215.930851,128.210172 217.042553,130.212623 218.493617,131.865809 C219.944681,133.518995 221.7,134.78799 223.759574,135.672794 C225.819149,136.557598 228.159574,137 230.780851,137 Z M240,115 L223,115 L223,114.51049 C223,113.111888 223.210744,111.829837 223.632231,110.664336 C224.053719,109.498834 224.650826,108.496503 225.423554,107.657343 C226.196281,106.818182 227.13292,106.165501 228.233471,105.699301 C229.334022,105.2331 230.539945,105 231.85124,105 C234.380165,105 236.370523,105.850816 237.822314,107.552448 C239.274105,109.254079 240,111.503497 240,114.300699 L240,114.300699 L240,115 Z M280,136 L280,129.667308 L259.73494,129.667308 L279.510843,104.976923 L279.510843,99 L251.628916,99 L251.628916,105.332692 L270.496386,105.332692 L251,129.738462 L251,136 L280,136 Z M300,137 C302.560669,137 304.896095,136.557598 307.006276,135.672794 C309.116457,134.78799 310.906555,133.518995 312.376569,131.865809 C313.846583,130.212623 314.984658,128.210172 315.790795,125.858456 C316.596932,123.50674 317,120.887255 317,118 C317,115.112745 316.596932,112.49326 315.790795,110.141544 C314.984658,107.789828 313.846583,105.787377 312.376569,104.134191 C310.906555,102.481005 309.116457,101.21201 307.006276,100.327206 C304.896095,99.442402 302.560669,99 300,99 C297.439331,99 295.103905,99.442402 292.993724,100.327206 C290.883543,101.21201 289.093445,102.481005 287.623431,104.134191 C286.153417,105.787377 285.015342,107.789828 284.209205,110.141544 C283.403068,112.49326 283,115.112745 283,118 C283,120.887255 283.403068,123.50674 284.209205,125.858456 C285.015342,128.210172 286.153417,130.212623 287.623431,131.865809 C289.093445,133.518995 290.883543,134.78799 292.993724,135.672794 C295.103905,136.557598 297.439331,137 300,137 Z M299,131 C296.290323,131 294.112903,130.178571 292.467742,128.535714 C290.822581,126.892857 290,124.428571 290,121.142857 L290,121.142857 L290,114.857143 C290,111.571429 290.822581,109.107143 292.467742,107.464286 C294.112903,105.821429 296.290323,105 299,105 C301.709677,105 303.887097,105.821429 305.532258,107.464286 C307.177419,109.107143 308,111.571429 308,114.857143 L308,114.857143 L308,121.142857 C308,124.428571 307.177419,126.892857 305.532258,128.535714 C303.887097,130.178571 301.709677,131 299,131 Z M331.622378,136 L331.622378,111.796992 C331.622378,110.730576 331.843823,109.803258 332.286713,109.015038 C332.729604,108.226817 333.324009,107.577694 334.06993,107.067669 C334.815851,106.557644 335.666667,106.175125 336.622378,105.920113 C337.578089,105.6651 338.545455,105.537594 339.524476,105.537594 C344.09324,105.537594 346.377622,108.365915 346.377622,114.022556 L346.377622,114.022556 L346.377622,136 L354,136 L354,113.048872 C354,108.551378 352.962704,105.085526 350.888112,102.651316 C348.81352,100.217105 345.911422,99 342.181818,99 C339.384615,99 337.181818,99.6491228 335.573427,100.947368 C333.965035,102.245614 332.764569,103.868421 331.972028,105.815789 L331.972028,105.815789 L331.622378,105.815789 L331.622378,99.8345865 L324,99.8345865 L324,136 L331.622378,136 Z M366.534884,93 C368.116279,93 369.255814,92.6335878 369.953488,91.9007634 C370.651163,91.1679389 371,90.2290076 371,89.0839695 L371,89.0839695 L371,87.9160305 C371,86.7709924 370.651163,85.8320611 369.953488,85.0992366 C369.255814,84.3664122 368.116279,84 366.534884,84 C364.953488,84 363.802326,84.3664122 363.081395,85.0992366 C362.360465,85.8320611 362,86.7709924 362,87.9160305 L362,87.9160305 L362,89.0839695 C362,90.2290076 362.360465,91.1679389 363.081395,91.9007634 C363.802326,92.6335878 364.953488,93 366.534884,93 Z M370,136 L370,99 L362,99 L362,136 L370,136 Z M386.622378,136 L386.622378,111.796992 C386.622378,110.730576 386.843823,109.803258 387.286713,109.015038 C387.729604,108.226817 388.324009,107.577694 389.06993,107.067669 C389.815851,106.557644 390.666667,106.175125 391.622378,105.920113 C392.578089,105.6651 393.545455,105.537594 394.524476,105.537594 C399.09324,105.537594 401.377622,108.365915 401.377622,114.022556 L401.377622,114.022556 L401.377622,136 L409,136 L409,113.048872 C409,108.551378 407.962704,105.085526 405.888112,102.651316 C403.81352,100.217105 400.911422,99 397.181818,99 C394.384615,99 392.181818,99.6491228 390.573427,100.947368 C388.965035,102.245614 387.764569,103.868421 386.972028,105.815789 L386.972028,105.815789 L386.622378,105.815789 L386.622378,99.8345865 L379,99.8345865 L379,136 L386.622378,136 Z M431.52,151 C438.053333,151 442.766667,150.045343 445.66,148.136029 C448.553333,146.226716 450,143.386029 450,139.613971 C450,136.493873 448.996667,134.037377 446.99,132.244485 C444.983333,130.451593 441.74,129.555147 437.26,129.555147 L437.26,129.555147 L428.3,129.555147 C426.666667,129.555147 425.406667,129.345588 424.52,128.926471 C423.633333,128.507353 423.19,127.808824 423.19,126.830882 C423.19,125.89951 423.54,125.14277 424.24,124.560662 C424.94,123.978554 425.756667,123.52451 426.69,123.198529 C428.09,123.571078 429.676667,123.757353 431.45,123.757353 C436.116667,123.757353 439.71,122.628064 442.23,120.369485 C444.75,118.110907 446.01,115.142157 446.01,111.463235 C446.01,109.367647 445.566667,107.469975 444.68,105.770221 C443.793333,104.070466 442.533333,102.685049 440.9,101.613971 L440.9,101.613971 L440.9,100.147059 L448.32,100.147059 L448.32,94 L442.72,94 C441.086667,94 439.885,94.4540441 439.115,95.3621324 C438.345,96.2702206 437.96,97.5392157 437.96,99.1691176 L437.96,99.1691176 L437.96,100.147059 C436.14,99.4019608 433.946667,99.0294118 431.38,99.0294118 C426.713333,99.0294118 423.131667,100.170343 420.635,102.452206 C418.138333,104.734069 416.89,107.737745 416.89,111.463235 C416.89,113.931373 417.461667,116.085172 418.605,117.924632 C419.748333,119.764093 421.393333,121.196078 423.54,122.220588 L423.54,122.220588 L423.54,122.5 C421.766667,122.919118 420.25,123.629289 418.99,124.630515 C417.73,125.63174 417.1,127.063725 417.1,128.926471 C417.1,131.767157 418.476667,133.629902 421.23,134.514706 L421.23,134.514706 L421.23,135.283088 C419.27,135.702206 417.741667,136.470588 416.645,137.588235 C415.548333,138.705882 415,140.265931 415,142.268382 C415,143.665441 415.303333,144.89951 415.91,145.970588 C416.516667,147.041667 417.485,147.949755 418.815,148.694853 C420.145,149.439951 421.848333,150.010417 423.925,150.40625 C426.001667,150.802083 428.533333,151 431.52,151 Z M431,118 C428.782178,118 427.061056,117.488095 425.836634,116.464286 C424.612211,115.440476 424,113.857143 424,111.714286 L424,111.714286 L424,110.285714 C424,108.142857 424.612211,106.559524 425.836634,105.535714 C427.061056,104.511905 428.782178,104 431,104 C433.217822,104 434.938944,104.511905 436.163366,105.535714 C437.387789,106.559524 438,108.142857 438,110.285714 L438,110.285714 L438,111.714286 C438,113.857143 437.387789,115.440476 436.163366,116.464286 C434.938944,117.488095 433.217822,118 431,118 Z M434.312704,146 L429.661238,146 C426.879479,146 424.907166,145.553435 423.7443,144.660305 C422.581433,143.767176 422,142.587786 422,141.122137 C422,139.335878 422.820847,137.961832 424.462541,137 L424.462541,137 L436.501629,137 C438.964169,137 440.662866,137.366412 441.59772,138.099237 C442.532573,138.832061 443,139.816794 443,141.053435 C443,144.351145 440.104235,146 434.312704,146 L434.312704,146 Z" id="Rezoning" fill="#23A6F5" fill-rule="nonzero"></path>
    </g>
</svg>