<?xml version="1.0" encoding="UTF-8"?>
<svg width="541px" height="151px" viewBox="0 0 541 151" version="1.1" xmlns="http://www.w3.org/2000/svg" xmlns:xlink="http://www.w3.org/1999/xlink">
    <title>Rezoning_heading</title>
    <g id="Rezoning_heading" stroke="none" stroke-width="1" fill="none" fill-rule="evenodd">
        <g id="Logo" fill="#B0E2FC">
            <rect id="Rectangle" style="mix-blend-mode: multiply;" x="0" y="0" width="100" height="100"></rect>
            <rect id="Rectangle" style="mix-blend-mode: multiply;" x="50" y="50" width="100" height="100"></rect>
            <rect id="Rectangle" style="mix-blend-mode: multiply;" x="35" y="15" width="100" height="100"></rect>
            <rect id="Rectangle" style="mix-blend-mode: multiply;" x="15" y="35" width="100" height="100"></rect>
        </g>
        <path d="M197.744,150 L197.744,128.4 L209.48,128.4 L220.352,150 L227.192,150 L215.672,127.824 C218.984,127.056 221.492,125.484 223.196,123.108 C224.9,120.732 225.752,117.696 225.752,114 C225.752,109.392 224.516,105.864 222.044,103.416 C219.572,100.968 216.128,99.744 211.712,99.744 L211.712,99.744 L191.696,99.744 L191.696,150 L197.744,150 Z M211.712,123.216 L197.744,123.216 L197.744,105.072 L211.712,105.072 C214.112,105.072 215.972,105.696 217.292,106.944 C218.612,108.192 219.272,109.968 219.272,112.272 L219.272,112.272 L219.272,116.016 C219.272,118.32 218.612,120.096 217.292,121.344 C215.972,122.592 214.112,123.216 211.712,123.216 L211.712,123.216 Z M268.448,150 L268.448,144.672 L243.824,144.672 L243.824,127.248 L267.008,127.248 L267.008,121.92 L243.824,121.92 L243.824,105.072 L268.448,105.072 L268.448,99.744 L237.776,99.744 L237.776,150 L268.448,150 Z M312.224,150 L312.224,144.672 L282.128,144.672 L311.216,105.216 L311.216,99.744 L277.16,99.744 L277.16,105.072 L304.664,105.072 L275.648,144.528 L275.648,150 L312.224,150 Z M340.304,150.864 C343.52,150.864 346.448,150.3 349.088,149.172 C351.728,148.044 353.972,146.388 355.82,144.204 C357.668,142.02 359.096,139.308 360.104,136.068 C361.112,132.828 361.616,129.096 361.616,124.872 C361.616,120.648 361.112,116.928 360.104,113.712 C359.096,110.496 357.668,107.784 355.82,105.576 C353.972,103.368 351.728,101.7 349.088,100.572 C346.448,99.444 343.52,98.88 340.304,98.88 C337.04,98.88 334.1,99.444 331.484,100.572 C328.868,101.7 326.636,103.368 324.788,105.576 C322.94,107.784 321.512,110.496 320.504,113.712 C319.496,116.928 318.992,120.648 318.992,124.872 C318.992,129.096 319.496,132.828 320.504,136.068 C321.512,139.308 322.94,142.02 324.788,144.204 C326.636,146.388 328.868,148.044 331.484,149.172 C334.1,150.3 337.04,150.864 340.304,150.864 Z M340.304,145.464 C338.144,145.464 336.152,145.08 334.328,144.312 C332.504,143.544 330.932,142.44 329.612,141 C328.292,139.56 327.272,137.832 326.552,135.816 C325.832,133.8 325.472,131.544 325.472,129.048 L325.472,129.048 L325.472,120.696 C325.472,118.2 325.832,115.944 326.552,113.928 C327.272,111.912 328.292,110.184 329.612,108.744 C330.932,107.304 332.504,106.2 334.328,105.432 C336.152,104.664 338.144,104.28 340.304,104.28 C342.464,104.28 344.456,104.664 346.28,105.432 C348.104,106.2 349.676,107.304 350.996,108.744 C352.316,110.184 353.336,111.912 354.056,113.928 C354.776,115.944 355.136,118.2 355.136,120.696 L355.136,120.696 L355.136,129.048 C355.136,131.544 354.776,133.8 354.056,135.816 C353.336,137.832 352.316,139.56 350.996,141 C349.676,142.44 348.104,143.544 346.28,144.312 C344.456,145.08 342.464,145.464 340.304,145.464 Z M378.392,150 L378.392,108.168 L378.608,108.168 L384.656,119.328 L403.016,150 L410,150 L410,99.744 L404.096,99.744 L404.096,141.576 L403.88,141.576 L397.832,130.416 L379.472,99.744 L372.488,99.744 L372.488,150 L378.392,150 Z M441.176,150 L441.176,144.96 L434.12,144.96 L434.12,104.784 L441.176,104.784 L441.176,99.744 L421.016,99.744 L421.016,104.784 L428.072,104.784 L428.072,144.96 L421.016,144.96 L421.016,150 L441.176,150 Z M458.096,150 L458.096,108.168 L458.312,108.168 L464.36,119.328 L482.72,150 L489.704,150 L489.704,99.744 L483.8,99.744 L483.8,141.576 L483.584,141.576 L477.536,130.416 L459.176,99.744 L452.192,99.744 L452.192,150 L458.096,150 Z M521.456,150.864 C525.296,150.864 528.428,150.084 530.852,148.524 C533.276,146.964 534.8,145.008 535.424,142.656 L535.424,142.656 L535.64,142.656 L535.64,150 L541.256,150 L541.256,124.152 L524.264,124.152 L524.264,129.48 L535.352,129.48 L535.352,134.448 C535.352,136.32 535.016,137.94 534.344,139.308 C533.672,140.676 532.748,141.816 531.572,142.728 C530.396,143.64 529.028,144.324 527.468,144.78 C525.908,145.236 524.264,145.464 522.536,145.464 C520.136,145.464 517.976,145.068 516.056,144.276 C514.136,143.484 512.516,142.368 511.196,140.928 C509.876,139.488 508.856,137.748 508.136,135.708 C507.416,133.668 507.056,131.4 507.056,128.904 L507.056,128.904 L507.056,120.768 C507.056,118.272 507.416,116.016 508.136,114 C508.856,111.984 509.876,110.256 511.196,108.816 C512.516,107.376 514.088,106.26 515.912,105.468 C517.736,104.676 519.752,104.28 521.96,104.28 C525.128,104.28 527.852,105.048 530.132,106.584 C532.412,108.12 534.128,110.232 535.28,112.92 L535.28,112.92 L540.248,109.896 C538.616,106.584 536.288,103.92 533.264,101.904 C530.24,99.888 526.472,98.88 521.96,98.88 C518.744,98.88 515.816,99.456 513.176,100.608 C510.536,101.76 508.28,103.428 506.408,105.612 C504.536,107.796 503.096,110.508 502.088,113.748 C501.08,116.988 500.576,120.696 500.576,124.872 C500.576,129.096 501.092,132.828 502.124,136.068 C503.156,139.308 504.584,142.02 506.408,144.204 C508.232,146.388 510.428,148.044 512.996,149.172 C515.564,150.3 518.384,150.864 521.456,150.864 Z" id="REZONING" fill="#66C2FF" fill-rule="nonzero"></path>
    </g>
</svg>